<svg width="19" height="19" viewBox="0 0 19 19" fill="none" xmlns="http://www.w3.org/2000/svg">
<g opacity="0.6">
<rect x="0.5" y="5.5" width="13" height="13" rx="0.5" stroke="black" stroke-linecap="round" stroke-linejoin="bevel"/>
<path d="M1 5L4.51724 1H18L14.4828 5" stroke="black" stroke-linecap="round" stroke-linejoin="round"/>
<path d="M1 18L2 17" stroke="black" stroke-linecap="round" stroke-linejoin="round"/>
<path d="M2 17L3 16" stroke="black" stroke-linecap="round" stroke-linejoin="round"/>
<path d="M4 15.5L5 15" stroke="black" stroke-linecap="round" stroke-linejoin="round"/>
<path d="M4.5 15V14" stroke="black" stroke-linecap="round" stroke-linejoin="round"/>
<path d="M4.5 13V12" stroke="black" stroke-linecap="round" stroke-linejoin="round"/>
<path d="M4.5 10V9" stroke="black" stroke-linecap="round" stroke-linejoin="round"/>
<path d="M4.5 7V6" stroke="black" stroke-linecap="round" stroke-linejoin="round"/>
<path d="M4.5 6V5" stroke="black" stroke-linecap="round" stroke-linejoin="round"/>
<path d="M5 15.25H5.5" stroke="black" stroke-linecap="round" stroke-linejoin="round"/>
<path d="M7 15.25H8" stroke="black" stroke-linecap="round" stroke-linejoin="round"/>
<path d="M9 15.25H10" stroke="black" stroke-linecap="round" stroke-linejoin="round"/>
<path d="M14 18L18 14.4828V1" stroke="black" stroke-linecap="round" stroke-linejoin="round"/>
<path d="M4.5 3V2" stroke="black" stroke-linecap="round" stroke-linejoin="round"/>
<path d="M12 15.25H13" stroke="black" stroke-linecap="round" stroke-linejoin="round"/>
<path d="M14 15.25H15" stroke="black" stroke-linecap="round" stroke-linejoin="round"/>
<path d="M16 15.25H17" stroke="black" stroke-linecap="round" stroke-linejoin="round"/>
</g>
</svg>
