<svg width="21" height="21" viewBox="0 0 21 21" fill="none" xmlns="http://www.w3.org/2000/svg">
<path fill-rule="evenodd" clip-rule="evenodd" d="M10.5 20C15.7467 20 20 15.7467 20 10.5C20 5.25329 15.7467 1 10.5 1C5.25329 1 1 5.25329 1 10.5C1 15.7467 5.25329 20 10.5 20Z" stroke="#9A8C60"/>
<path d="M17.2963 3.78613L3.63477 17.312" stroke="#9A8C60"/>
<path fill-rule="evenodd" clip-rule="evenodd" d="M12.8182 5.62598L8.57227 8.18099V13.0335L12.8182 15.3055V5.62598Z" stroke="#9A8C60" stroke-linejoin="round"/>
<path d="M8.57213 8.18066H4.11328V12.9413H8.57213" stroke="#9A8C60" stroke-linejoin="round"/>
<path d="M14.9482 8.68457C14.9482 8.68457 15.756 10.4603 14.9482 12.0443" stroke="#9A8C60" stroke-linecap="round" stroke-linejoin="round"/>
<path d="M16.8633 7.32715C16.8633 7.32715 18.5206 10.293 16.8633 13.8021" stroke="#9A8C60" stroke-linecap="round" stroke-linejoin="round"/>
</svg>
