<svg width="19" height="22" viewBox="0 0 19 22" fill="none" xmlns="http://www.w3.org/2000/svg">
<path fill-rule="evenodd" clip-rule="evenodd" d="M9.50593 20.6482C20.3343 17.9535 17.3382 4.47902 17.3382 4.47902C11.8185 3.98924 9.50593 1 9.50593 1C9.50593 1 7.19334 3.98924 1.67303 4.47902C1.67303 4.47902 -1.32249 17.9535 9.50593 20.6482Z" stroke="#9A8C60"/>
<path fill-rule="evenodd" clip-rule="evenodd" d="M14.0747 10.8233C14.0747 13.3545 12.0294 15.4059 9.5064 15.4059C6.98278 15.4059 4.9375 13.3545 4.9375 10.8233C4.9375 8.29264 6.98278 6.24121 9.5064 6.24121C12.0294 6.24121 14.0747 8.29264 14.0747 10.8233Z" stroke="#9A8C60"/>
<path d="M7.17773 11.0315L8.59167 12.4503L11.8334 9.19824" stroke="#9A8C60"/>
</svg>
