<svg width="33" height="23" viewBox="0 0 33 23" fill="none" xmlns="http://www.w3.org/2000/svg">
<path fill-rule="evenodd" clip-rule="evenodd" d="M10.1868 8.28667C9.35154 9.7516 7.46139 10.2731 5.96706 9.45434C4.47455 8.63377 3.94073 6.78259 4.77778 5.31766C5.613 3.85274 7.50133 3.3312 8.99566 4.15C10.49 4.97057 11.022 6.82175 10.1868 8.28667Z" stroke="#9A8C60"/>
<path fill-rule="evenodd" clip-rule="evenodd" d="M21.2909 2.44801V9.20477L7.15625 13.1579C7.15625 13.1579 1 13.2348 1 6.81824C1 0.403436 7.02796 1.01573 7.02796 1.01573L21.2909 2.44801Z" stroke="#9A8C60"/>
<path d="M7.2002 13.2838L10.0905 22.0001L13.9638 20.7978L11.255 12.0527" stroke="#9A8C60"/>
<path d="M24.6729 2.4432C24.6729 2.4432 24.6874 1.2147 26.5612 1.2147C28.4331 1.2147 28.938 2.4432 30.1574 2.4432C31.3768 2.4432 32.0001 1.63746 32.0001 1.63746" stroke="#9A8C60"/>
<path d="M24.6729 5.75863C24.6729 5.75863 24.6874 4.53013 26.5612 4.53013C28.4331 4.53013 28.938 5.75863 30.1574 5.75863C31.3768 5.75863 32.0001 4.95123 32.0001 4.95123" stroke="#9A8C60"/>
<path d="M24.6729 8.5223C24.6729 8.5223 24.6874 7.2938 26.5612 7.2938C28.4331 7.2938 28.938 8.5223 30.1574 8.5223C31.3768 8.5223 32.0001 7.7149 32.0001 7.7149" stroke="#9A8C60"/>
</svg>
