<svg width="20" height="16" viewBox="0 0 20 16" fill="none" xmlns="http://www.w3.org/2000/svg">
<g opacity="0.6">
<path fill-rule="evenodd" clip-rule="evenodd" d="M6.13256 5.71242C7.44194 5.71242 8.50341 4.65751 8.50341 3.35621C8.50341 2.05491 7.44194 1 6.13256 1C4.82318 1 3.76172 2.05491 3.76172 3.35621C3.76172 4.65751 4.82318 5.71242 6.13256 5.71242Z" stroke="black" stroke-linecap="round" stroke-linejoin="round"/>
<path fill-rule="evenodd" clip-rule="evenodd" d="M13.8669 5.71242C15.1763 5.71242 16.2378 4.65751 16.2378 3.35621C16.2378 2.05491 15.1763 1 13.8669 1C12.5576 1 11.4961 2.05491 11.4961 3.35621C11.4961 4.65751 12.5576 5.71242 13.8669 5.71242Z" stroke="black" stroke-linecap="round" stroke-linejoin="round"/>
<path d="M1 14.7256C1 14.7256 1.2641 7.58838 5.66056 7.58838C10.057 7.58838 10.7136 14.7256 10.7136 14.7256" stroke="black" stroke-linecap="round" stroke-linejoin="round"/>
<path d="M10.7473 9.82542C10.7473 9.82542 10.2758 10.9929 10.4293 10.5647C11.1401 8.58114 12.3915 7.58838 14.1924 7.58838C18.3756 7.58838 19.0003 14.7256 19.0003 14.7256" stroke="black" stroke-linecap="round" stroke-linejoin="round"/>
</g>
</svg>
