<svg width="127" height="40" viewBox="0 0 127 40" fill="none" xmlns="http://www.w3.org/2000/svg">
<path d="M18.876 23.688C18.928 23.688 18.954 23.74 18.954 23.844C18.954 23.948 18.928 24 18.876 24L16.562 23.974L14.716 24C14.508 24 14.3693 23.974 14.3 23.922C14.248 23.87 14.222 23.7313 14.222 23.506V21.738C13.3033 22.622 12.3847 23.272 11.466 23.688C10.5473 24.104 9.542 24.312 8.45 24.312C7.32333 24.312 6.292 24.104 5.356 23.688C4.43733 23.2547 3.70933 22.648 3.172 21.868C2.63467 21.088 2.366 20.1867 2.366 19.164V9.856C2.366 9.336 2.32267 8.95467 2.236 8.712C2.14933 8.46933 1.976 8.30467 1.716 8.218C1.456 8.114 1.05733 8.062 0.52 8.062C0.468 8.062 0.442 8.01 0.442 7.906C0.442 7.802 0.468 7.75 0.52 7.75L1.898 7.776C2.69533 7.81067 3.328 7.828 3.796 7.828C4.316 7.828 4.97467 7.81067 5.772 7.776L7.124 7.75C7.15867 7.75 7.176 7.802 7.176 7.906C7.176 8.01 7.15867 8.062 7.124 8.062C6.58667 8.062 6.188 8.114 5.928 8.218C5.668 8.322 5.486 8.504 5.382 8.764C5.29533 9.00667 5.252 9.388 5.252 9.908V18.254C5.252 19.866 5.63333 21.1053 6.396 21.972C7.176 22.8387 8.216 23.272 9.516 23.272C10.348 23.272 11.1367 23.09 11.882 22.726C12.6273 22.362 13.4073 21.79 14.222 21.01V9.908C14.222 9.388 14.1787 9.00667 14.092 8.764C14.0053 8.504 13.832 8.322 13.572 8.218C13.3293 8.114 12.9307 8.062 12.376 8.062C12.3413 8.062 12.324 8.01 12.324 7.906C12.324 7.802 12.3413 7.75 12.376 7.75L13.754 7.776C14.5167 7.81067 15.1233 7.828 15.574 7.828C16.0767 7.828 16.7093 7.81067 17.472 7.776L18.876 7.75C18.928 7.75 18.954 7.802 18.954 7.906C18.954 8.01 18.928 8.062 18.876 8.062C18.3387 8.062 17.94 8.114 17.68 8.218C17.42 8.30467 17.238 8.46933 17.134 8.712C17.0473 8.95467 17.004 9.336 17.004 9.856V21.894C17.004 22.414 17.0473 22.804 17.134 23.064C17.238 23.3067 17.4113 23.4713 17.654 23.558C17.914 23.6447 18.3213 23.688 18.876 23.688ZM36.9931 7.75C37.0451 7.75 37.0711 7.802 37.0711 7.906C37.0711 8.01 37.0451 8.062 36.9931 8.062C36.3691 8.062 35.7711 8.33933 35.1991 8.894C34.6271 9.44867 34.1678 10.194 33.8211 11.13L29.0111 23.974C28.9938 24.0433 28.8985 24.078 28.7251 24.078C28.5518 24.078 28.4565 24.0433 28.4391 23.974L21.8091 9.908C21.4971 9.284 21.1851 8.82467 20.8731 8.53C20.5611 8.218 20.2145 8.062 19.8331 8.062C19.7811 8.062 19.7551 8.01 19.7551 7.906C19.7551 7.802 19.7811 7.75 19.8331 7.75C20.0931 7.75 20.2751 7.75867 20.3791 7.776C20.7258 7.81067 21.1765 7.828 21.7311 7.828C23.2218 7.828 24.4871 7.81067 25.5271 7.776C25.8045 7.75867 26.1511 7.75 26.5671 7.75C26.6191 7.75 26.6451 7.802 26.6451 7.906C26.6451 8.01 26.6191 8.062 26.5671 8.062C26.0471 8.062 25.6398 8.17467 25.3451 8.4C25.0678 8.608 24.9291 8.91133 24.9291 9.31C24.9291 9.60467 25.0245 9.96 25.2151 10.376L29.7131 19.97L33.0931 11.052C33.2665 10.5667 33.3531 10.1507 33.3531 9.804C33.3531 9.26667 33.1885 8.842 32.8591 8.53C32.5471 8.218 32.0878 8.062 31.4811 8.062C31.4291 8.062 31.4031 8.01 31.4031 7.906C31.4031 7.802 31.4291 7.75 31.4811 7.75L32.7551 7.776C33.4831 7.81067 34.1331 7.828 34.7051 7.828C35.0345 7.828 35.4418 7.81067 35.9271 7.776L36.9931 7.75ZM52.9447 23.688C53.0314 23.688 53.0747 23.74 53.0747 23.844C53.0747 23.948 53.0314 24 52.9447 24C52.5981 24 52.0607 23.9827 51.3327 23.948C50.5701 23.9133 50.0241 23.896 49.6947 23.896C49.2614 23.896 48.7327 23.9133 48.1087 23.948C47.5194 23.9827 47.0514 24 46.7047 24C46.6354 24 46.6007 23.948 46.6007 23.844C46.6007 23.74 46.6354 23.688 46.7047 23.688C47.1554 23.688 47.4761 23.6447 47.6667 23.558C47.8747 23.454 47.9787 23.2807 47.9787 23.038C47.9787 22.7433 47.8054 22.2493 47.4587 21.556L44.7547 16.226H40.1267L38.2807 20.308C38.0554 20.8107 37.9427 21.2787 37.9427 21.712C37.9427 22.336 38.1594 22.8213 38.5927 23.168C39.0434 23.5147 39.6414 23.688 40.3867 23.688C40.4734 23.688 40.5167 23.74 40.5167 23.844C40.5167 23.948 40.4734 24 40.3867 24C40.0747 24 39.6241 23.9827 39.0347 23.948C38.3761 23.9133 37.8041 23.896 37.3187 23.896C36.8507 23.896 36.2874 23.9133 35.6287 23.948C35.0394 23.9827 34.5627 24 34.1987 24C34.1294 24 34.0947 23.948 34.0947 23.844C34.0947 23.74 34.1294 23.688 34.1987 23.688C34.6841 23.688 35.0914 23.5927 35.4207 23.402C35.7501 23.194 36.0794 22.8387 36.4087 22.336C36.7381 21.816 37.1281 21.0533 37.5787 20.048L43.2207 7.646C43.2554 7.594 43.3334 7.568 43.4547 7.568C43.5934 7.568 43.6714 7.594 43.6887 7.646L50.1887 20.438C50.7954 21.6687 51.2981 22.518 51.6967 22.986C52.0954 23.454 52.5114 23.688 52.9447 23.688ZM40.4647 15.498H44.3907L42.3107 11.39L40.4647 15.498ZM63.5554 7.464C64.318 7.464 65.1154 7.53333 65.9474 7.672C66.7794 7.79333 67.4294 7.958 67.8974 8.166C68.0534 8.218 68.1487 8.28733 68.1834 8.374C68.2354 8.44333 68.2787 8.57333 68.3134 8.764L68.6254 12.378C68.6254 12.43 68.582 12.4647 68.4954 12.482C68.4087 12.4993 68.3567 12.4733 68.3394 12.404C67.75 11.0347 66.9614 9.97733 65.9734 9.232C64.9854 8.48667 63.8414 8.114 62.5414 8.114C60.8254 8.114 59.4994 8.74667 58.5634 10.012C57.6274 11.2773 57.1594 12.976 57.1594 15.108C57.1594 16.7027 57.4107 18.1587 57.9134 19.476C58.4334 20.7933 59.1527 21.842 60.0714 22.622C61.0074 23.3847 62.0647 23.766 63.2434 23.766C64.3527 23.766 65.3407 23.402 66.2074 22.674C67.0914 21.9287 67.88 20.802 68.5734 19.294C68.5907 19.2247 68.6427 19.1987 68.7294 19.216C68.8334 19.2333 68.8854 19.268 68.8854 19.32L68.4954 22.856C68.4607 23.064 68.4174 23.2027 68.3654 23.272C68.3307 23.324 68.2354 23.3847 68.0794 23.454C66.5367 24.026 64.9507 24.312 63.3214 24.312C61.2067 24.312 59.4387 23.896 58.0174 23.064C56.596 22.2147 55.5474 21.1487 54.8714 19.866C54.2127 18.566 53.8834 17.214 53.8834 15.81C53.8834 14.1633 54.3254 12.7073 55.2094 11.442C56.1107 10.1767 57.298 9.19733 58.7714 8.504C60.262 7.81067 61.8567 7.464 63.5554 7.464ZM79.518 24.312C77.906 24.312 76.4673 23.9393 75.202 23.194C73.954 22.4313 72.9833 21.4087 72.29 20.126C71.614 18.826 71.276 17.4133 71.276 15.888C71.276 14.1027 71.7266 12.5773 72.628 11.312C73.5293 10.0293 74.682 9.06733 76.086 8.426C77.5073 7.78467 78.9546 7.464 80.428 7.464C82.0746 7.464 83.522 7.854 84.77 8.634C86.018 9.39667 86.9713 10.4107 87.63 11.676C88.306 12.9413 88.644 14.2847 88.644 15.706C88.644 17.2833 88.228 18.7307 87.396 20.048C86.564 21.3653 85.446 22.4053 84.042 23.168C82.6553 23.9307 81.1473 24.312 79.518 24.312ZM80.376 23.662C81.3466 23.662 82.2133 23.3847 82.976 22.83C83.756 22.258 84.3626 21.4347 84.796 20.36C85.2293 19.268 85.446 17.968 85.446 16.46C85.446 14.8653 85.2033 13.444 84.718 12.196C84.2326 10.9307 83.5306 9.94267 82.612 9.232C81.6933 8.52133 80.6186 8.166 79.388 8.166C77.8106 8.166 76.5973 8.764 75.748 9.96C74.8986 11.1387 74.474 12.794 74.474 14.926C74.474 16.6073 74.7253 18.1153 75.228 19.45C75.748 20.7673 76.45 21.7987 77.334 22.544C78.2353 23.2893 79.2493 23.662 80.376 23.662ZM111.566 23.688C111.601 23.688 111.618 23.74 111.618 23.844C111.618 23.948 111.601 24 111.566 24C110.977 24 110.509 23.9913 110.162 23.974L108.238 23.948L106.288 23.974C105.959 23.9913 105.508 24 104.936 24C104.884 24 104.858 23.948 104.858 23.844C104.858 23.74 104.884 23.688 104.936 23.688C105.664 23.688 106.158 23.6013 106.418 23.428C106.678 23.2547 106.808 22.8907 106.808 22.336L106.782 21.894L106.236 11.26L100.88 23.818C100.846 23.8873 100.776 23.922 100.672 23.922C100.568 23.922 100.499 23.8873 100.464 23.818L93.8862 11.312L93.6782 20.698C93.6609 21.634 93.8429 22.3707 94.2242 22.908C94.6229 23.428 95.1775 23.688 95.8882 23.688C95.9402 23.688 95.9662 23.74 95.9662 23.844C95.9662 23.948 95.9402 24 95.8882 24C95.4202 24 95.0562 23.9913 94.7962 23.974L93.3662 23.948L91.7282 23.974C91.4509 23.9913 91.0782 24 90.6102 24C90.5582 24 90.5322 23.948 90.5322 23.844C90.5322 23.74 90.5582 23.688 90.6102 23.688C91.3209 23.688 91.8842 23.4193 92.3002 22.882C92.7162 22.3447 92.9329 21.6167 92.9502 20.698L93.1842 9.934L93.1582 9.908C92.8115 9.26667 92.4475 8.79867 92.0662 8.504C91.7022 8.20933 91.2775 8.062 90.7922 8.062C90.7402 8.062 90.7142 8.01 90.7142 7.906C90.7142 7.802 90.7402 7.75 90.7922 7.75L92.0142 7.776C92.2569 7.79333 92.5689 7.802 92.9502 7.802L94.3282 7.776C94.4842 7.75867 94.6835 7.75 94.9262 7.75C95.1515 7.75 95.3249 7.828 95.4462 7.984C95.5675 8.14 95.7929 8.51267 96.1222 9.102L101.79 19.736L106.73 8.4C106.834 8.15733 106.938 7.99267 107.042 7.906C107.164 7.802 107.32 7.75 107.51 7.75C107.666 7.75 107.84 7.75867 108.03 7.776C108.238 7.79333 108.472 7.802 108.732 7.802L110.266 7.776C110.509 7.75867 110.856 7.75 111.306 7.75C111.358 7.75 111.384 7.802 111.384 7.906C111.384 8.01 111.358 8.062 111.306 8.062C110.492 8.062 109.902 8.22667 109.538 8.556C109.174 8.88533 109.01 9.39667 109.044 10.09L109.668 21.894C109.703 22.4313 109.764 22.8213 109.85 23.064C109.954 23.3067 110.128 23.4713 110.37 23.558C110.63 23.6447 111.029 23.688 111.566 23.688ZM125.097 19.866C125.097 19.8313 125.132 19.814 125.201 19.814C125.253 19.814 125.297 19.8313 125.331 19.866C125.383 19.8833 125.409 19.9007 125.409 19.918C125.236 21.27 125.149 22.5007 125.149 23.61C125.149 23.7487 125.123 23.8527 125.071 23.922C125.019 23.974 124.915 24 124.759 24H113.267C113.215 24 113.189 23.948 113.189 23.844C113.189 23.74 113.215 23.688 113.267 23.688C113.822 23.688 114.221 23.6447 114.463 23.558C114.723 23.4713 114.897 23.3067 114.983 23.064C115.07 22.804 115.113 22.414 115.113 21.894V9.856C115.113 9.336 115.07 8.95467 114.983 8.712C114.897 8.46933 114.723 8.30467 114.463 8.218C114.203 8.114 113.805 8.062 113.267 8.062C113.215 8.062 113.189 8.01 113.189 7.906C113.189 7.802 113.215 7.75 113.267 7.75H124.291C124.465 7.75 124.551 7.828 124.551 7.984L124.603 11.442C124.603 11.4767 124.551 11.5027 124.447 11.52C124.361 11.5373 124.309 11.52 124.291 11.468C124.014 10.4627 123.546 9.71733 122.887 9.232C122.229 8.74667 121.362 8.504 120.287 8.504H119.507C118.987 8.504 118.606 8.61667 118.363 8.842C118.121 9.06733 117.999 9.414 117.999 9.882V15.186H120.157C121.163 15.186 121.934 15.0127 122.471 14.666C123.009 14.3193 123.277 13.834 123.277 13.21C123.277 13.158 123.321 13.132 123.407 13.132C123.511 13.132 123.563 13.158 123.563 13.21L123.537 15.55L123.563 16.798C123.598 17.3873 123.615 17.8553 123.615 18.202C123.615 18.2367 123.563 18.254 123.459 18.254C123.355 18.254 123.303 18.2367 123.303 18.202C123.303 17.4913 123.026 16.9367 122.471 16.538C121.934 16.122 121.154 15.914 120.131 15.914H117.999V21.79C117.999 22.2927 118.095 22.6653 118.285 22.908C118.476 23.1507 118.779 23.272 119.195 23.272H120.053C121.405 23.272 122.489 22.9947 123.303 22.44C124.118 21.8853 124.716 21.0273 125.097 19.866Z" fill="white"/>
<path d="M25.552 36H26.128V33.32H29.216V36H29.792V30.336H29.216V32.792H26.128V30.336H25.552V36ZM46.6942 33.168C46.6942 31.448 45.4302 30.192 43.7422 30.192C42.0542 30.192 40.7902 31.448 40.7902 33.168C40.7902 34.888 42.0542 36.144 43.7422 36.144C45.4302 36.144 46.6942 34.888 46.6942 33.168ZM46.0862 33.168C46.0862 34.488 45.1982 35.632 43.7422 35.632C42.2862 35.632 41.3982 34.488 41.3982 33.168C41.3982 31.848 42.2862 30.696 43.7422 30.696C45.1982 30.696 46.0862 31.848 46.0862 33.168ZM59.2649 30.848H61.1609V30.336H56.7929V30.848H58.6889V36H59.2649V30.848ZM72.3874 33.304H75.1314V32.8H72.3874V30.848H75.3234V30.336H71.8114V36H75.4194V35.488H72.3874V33.304ZM86.9218 30.336H86.3458V36H89.5618V35.488H86.9218V30.336ZM103.424 30.88C103.152 30.512 102.584 30.192 101.824 30.192C100.992 30.192 100.016 30.656 100.016 31.752C100.016 32.776 100.784 33.104 101.536 33.336C102.256 33.56 102.92 33.76 102.92 34.552C102.92 35.28 102.248 35.648 101.664 35.648C101.072 35.648 100.616 35.336 100.368 34.936L99.8719 35.304C100.28 35.864 100.968 36.144 101.656 36.144C102.552 36.144 103.504 35.648 103.504 34.512C103.504 33.376 102.624 33.12 101.824 32.856C101.192 32.648 100.592 32.464 100.592 31.744C100.592 31.016 101.24 30.68 101.8 30.68C102.336 30.68 102.728 30.904 102.968 31.248L103.424 30.88Z" fill="white"/>
</svg>
